<svg xmlns="http://www.w3.org/2000/svg" xmlns:xlink="http://www.w3.org/1999/xlink" viewBox="4072 778 318 317.18">
  <defs>
    <style>
      .cls-1 {
        fill: #fff;
      }

      .cls-2 {
        filter: url(#Path_6);
      }
    </style>
    <filter id="Path_6" x="4072" y="778" width="318" height="317.18" filterUnits="userSpaceOnUse">
      <feOffset dy="3" input="SourceAlpha"/>
      <feGaussianBlur stdDeviation="3" result="blur"/>
      <feFlood flood-opacity="0.6"/>
      <feComposite operator="in" in2="blur"/>
      <feComposite in="SourceGraphic"/>
    </filter>
  </defs>
  <g class="cls-2" transform="matrix(1, 0, 0, 1, 0, 0)">
    <path id="Path_6-2" data-name="Path 6" class="cls-1" d="M290,17.9a10.029,10.029,0,0,1,10,10V289.255a10.029,10.029,0,0,1-10,10H10a10.029,10.029,0,0,1-10-10V27.9a10.029,10.029,0,0,1,10-10H124.6a10.327,10.327,0,0,0,7.1-2.9L144.3,2.4a8.028,8.028,0,0,1,11.3,0L168.3,15a9.9,9.9,0,0,0,7.1,2.9Z" transform="translate(4081 783.92)"/>
  </g>
</svg>
