<svg id="Group_18" data-name="Group 18" xmlns="http://www.w3.org/2000/svg" viewBox="3644 124 25 25">
  <defs>
    <style>
      .cls-1 {
        fill: rgba(111,133,97,0.2);
        stroke: #6f8561;
        stroke-width: 2px;
      }

      .cls-2 {
        fill: #6f8561;
      }

      .cls-3 {
        stroke: none;
      }

      .cls-4 {
        fill: none;
      }
    </style>
  </defs>
  <g id="Ellipse_28" data-name="Ellipse 28" class="cls-1" transform="translate(3644 124)">
    <circle class="cls-3" cx="12.5" cy="12.5" r="12.5"/>
    <circle class="cls-4" cx="12.5" cy="12.5" r="11.5"/>
  </g>
  <path id="Union_7" data-name="Union 7" class="cls-2" d="M-2855,11V7h-4a1,1,0,0,1-1-1,1,1,0,0,1,1-1h4V1a1,1,0,0,1,1-1,1,1,0,0,1,1,1V5h4a1,1,0,0,1,1,1,1,1,0,0,1-1,1h-4v4a1,1,0,0,1-1,1A1,1,0,0,1-2855,11Z" transform="translate(6510.5 130.5)"/>
</svg>
